# xmcd
#
# Track frame offsets: 
#        150
#        12762
#        28275
#        43412
#        56147
#        69155
#        91157
#        102232
#        112820
#        124047
#        137417
#        158530
#        176620
#
# Disc length: 2682 seconds
#
# Revision: 6
# Processed by: cddbd v1.5.2PL0 Copyright (c) Steve Scherf et al.
# Submitted via: ExactAudioCopy v1.3
#
DISCID=a10a780d
DTITLE=Steve Wynn - Melting In The Dark
DYEAR=1996
DGENRE=Alternative
TTITLE0=Why [Chris Brokaw g,vo]
TTITLE1=Shelley's Blues, Pt. 2 [Thalia Zadek g,vo]
TTITLE2=What We Call Love Sean O'Brien b]
TTITLE3=Drizzle [Arthur Johnson d]
TTITLE4=The Angels
TTITLE5=Epilogue
TTITLE6=Silence Is Your Only Friend
TTITLE7=Stare It Down
TTITLE8=Smooth
TTITLE9=For All I Care
TTITLE10=The Way You Punish Me
TTITLE11=Down
TTITLE12=Melting In The Dark
EXTD=YEAR: 1996
EXTT0=
EXTT1=
EXTT2=
EXTT3=
EXTT4=
EXTT5=
EXTT6=
EXTT7=
EXTT8=
EXTT9=
EXTT10=
EXTT11=
EXTT12=
PLAYORDER=
